<svg xmlns="http://www.w3.org/2000/svg" width="500" height="500" viewBox="0 0 500 500" version="1.1"><path d="M 72 219.930 L 72 259 89.951 259 C 99.824 259, 110.286 258.494, 113.201 257.875 C 130.496 254.202, 142.409 240.857, 143.706 223.702 C 145.062 205.771, 137.407 191.878, 122.201 184.674 L 115.500 181.500 93.750 181.180 L 72 180.860 72 219.930 M 200.976 205.250 C 200.963 218.588, 200.537 231.300, 200.028 233.500 C 199.518 235.711, 197.938 238.506, 196.497 239.750 C 194.212 241.721, 192.780 242, 184.944 242 L 176 242 176 250.608 L 176 259.216 187.250 258.854 C 197.179 258.534, 199.184 258.156, 204.323 255.637 C 210.591 252.563, 215.132 247.412, 217.125 241.112 C 217.815 238.931, 218.453 226.312, 218.736 209.250 L 219.205 181 210.102 181 L 201 181 200.976 205.250 M 255 193 L 255 203.011 341.250 202.756 L 427.500 202.500 427.500 193 L 427.500 183.500 341.250 183.244 L 255 182.989 255 193 M 89.231 219.639 L 89.500 242.500 98.500 242.421 C 103.450 242.378, 109.199 241.777, 111.275 241.085 C 129.282 235.089, 130.740 208.383, 113.561 199.224 C 111.463 198.106, 107.111 197.464, 99.731 197.185 L 88.962 196.777 89.231 219.639 M 268 273.014 L 268 312.161 291.250 311.780 C 316.419 311.368, 318.262 311.016, 325.022 305.328 C 334.092 297.696, 334.282 283.704, 325.428 275.408 L 321.061 271.316 324.067 268.436 C 328.302 264.378, 330.399 256.741, 328.996 250.481 C 327.595 244.229, 324.923 240.627, 319.185 237.254 L 314.500 234.500 291.250 234.184 L 268 233.867 268 273.014 M 369 272.931 L 369 312 378 312 L 387 312 387 300 L 387 288 392.932 288 L 398.864 288 405.682 299.991 L 412.500 311.983 422.832 311.991 L 433.163 312 431.189 308.750 C 424.805 298.238, 416.985 284.700, 417.223 284.569 C 422.505 281.668, 426.004 278.408, 428.235 274.309 C 435.651 260.685, 430.863 243.794, 417.568 236.678 C 413.801 234.661, 411.853 234.476, 391.250 234.181 L 369 233.863 369 272.931 M 286 256.500 L 286 265 295.865 265 C 304.331 265, 306.104 264.706, 308.365 262.927 C 310.491 261.255, 311 260.014, 311 256.500 C 311 252.986, 310.491 251.745, 308.365 250.073 C 306.104 248.294, 304.331 248, 295.865 248 L 286 248 286 256.500 M 387 261.147 L 387 273.294 396.668 272.717 C 407.712 272.058, 410.614 270.608, 412.898 264.609 C 414.030 261.634, 414.068 260.169, 413.094 256.919 C 411.238 250.724, 407.587 249.008, 396.250 249.004 L 387 249 387 261.147 M 286 288.500 L 286 298 295.351 298 C 306.445 298, 310.538 296.795, 312.530 292.941 C 314.368 289.388, 314.377 287.629, 312.575 284.145 C 310.462 280.058, 307.042 279, 295.953 279 L 286 279 286 288.500 M 58 302.500 L 58 312 144.500 312 L 231 312 231 302.500 L 231 293 144.500 293 L 58 293 58 302.500" stroke="none" fill="#070707" fill-rule="evenodd"/><path d="M 212 1.119 C 162.631 9.715, 122.265 28.353, 86.500 59.064 C 48.349 91.824, 19.943 137.913, 7.397 187.408 C 1.892 209.122, 0.008 224.714, 0.004 248.583 C 0.002 260.729, 0.436 273.104, 0.969 276.083 C 1.501 279.062, 2.658 285.775, 3.540 291 C 14.918 358.442, 53.743 418.141, 111 456.236 C 143.130 477.614, 180.017 491.565, 217.341 496.458 C 233.001 498.511, 267.007 498.509, 282.699 496.455 C 345.770 488.198, 406.289 454.028, 445.568 404.497 C 473.473 369.308, 491.935 326.224, 498.058 282 C 498.705 277.325, 499.632 273.073, 500.117 272.550 C 501.223 271.360, 501.297 222.699, 500.192 223.382 C 499.747 223.656, 498.826 219.970, 498.146 215.191 C 494.422 189.049, 485.788 161.221, 474.041 137.500 C 439.865 68.490, 377.658 20.292, 301 3.430 C 288.838 0.754, 287.540 0.673, 253 0.420 C 233.475 0.278, 215.025 0.592, 212 1.119 M 72 219.930 L 72 259 89.951 259 C 99.824 259, 110.286 258.494, 113.201 257.875 C 130.496 254.202, 142.409 240.857, 143.706 223.702 C 145.062 205.771, 137.407 191.878, 122.201 184.674 L 115.500 181.500 93.750 181.180 L 72 180.860 72 219.930 M 200.976 205.250 C 200.963 218.588, 200.537 231.300, 200.028 233.500 C 199.518 235.711, 197.938 238.506, 196.497 239.750 C 194.212 241.721, 192.780 242, 184.944 242 L 176 242 176 250.608 L 176 259.216 187.250 258.854 C 197.179 258.534, 199.184 258.156, 204.323 255.637 C 210.591 252.563, 215.132 247.412, 217.125 241.112 C 217.815 238.931, 218.453 226.312, 218.736 209.250 L 219.205 181 210.102 181 L 201 181 200.976 205.250 M 255 193 L 255 203.011 341.250 202.756 L 427.500 202.500 427.500 193 L 427.500 183.500 341.250 183.244 L 255 182.989 255 193 M 89.231 219.639 L 89.500 242.500 98.500 242.421 C 103.450 242.378, 109.199 241.777, 111.275 241.085 C 129.282 235.089, 130.740 208.383, 113.561 199.224 C 111.463 198.106, 107.111 197.464, 99.731 197.185 L 88.962 196.777 89.231 219.639 M 0.434 248.500 C 0.433 262.250, 0.574 268.014, 0.747 261.308 C 0.919 254.603, 0.920 243.353, 0.748 236.308 C 0.576 229.264, 0.434 234.750, 0.434 248.500 M 268 273.014 L 268 312.161 291.250 311.780 C 316.419 311.368, 318.262 311.016, 325.022 305.328 C 334.092 297.696, 334.282 283.704, 325.428 275.408 L 321.061 271.316 324.067 268.436 C 328.302 264.378, 330.399 256.741, 328.996 250.481 C 327.595 244.229, 324.923 240.627, 319.185 237.254 L 314.500 234.500 291.250 234.184 L 268 233.867 268 273.014 M 369 272.931 L 369 312 378 312 L 387 312 387 300 L 387 288 392.932 288 L 398.864 288 405.682 299.991 L 412.500 311.983 422.832 311.991 L 433.163 312 431.189 308.750 C 424.805 298.238, 416.985 284.700, 417.223 284.569 C 422.505 281.668, 426.004 278.408, 428.235 274.309 C 435.651 260.685, 430.863 243.794, 417.568 236.678 C 413.801 234.661, 411.853 234.476, 391.250 234.181 L 369 233.863 369 272.931 M 286 256.500 L 286 265 295.865 265 C 304.331 265, 306.104 264.706, 308.365 262.927 C 310.491 261.255, 311 260.014, 311 256.500 C 311 252.986, 310.491 251.745, 308.365 250.073 C 306.104 248.294, 304.331 248, 295.865 248 L 286 248 286 256.500 M 387 261.147 L 387 273.294 396.668 272.717 C 407.712 272.058, 410.614 270.608, 412.898 264.609 C 414.030 261.634, 414.068 260.169, 413.094 256.919 C 411.238 250.724, 407.587 249.008, 396.250 249.004 L 387 249 387 261.147 M 286 288.500 L 286 298 295.351 298 C 306.445 298, 310.538 296.795, 312.530 292.941 C 314.368 289.388, 314.377 287.629, 312.575 284.145 C 310.462 280.058, 307.042 279, 295.953 279 L 286 279 286 288.500 M 58 302.500 L 58 312 144.500 312 L 231 312 231 302.500 L 231 293 144.500 293 L 58 293 58 302.500" stroke="none" fill="#fbfbfb" fill-rule="evenodd"/></svg>